<?xml version="1.0" ?><!DOCTYPE svg  PUBLIC '-//W3C//DTD SVG 1.1//EN'  'http://www.w3.org/Graphics/SVG/1.1/DTD/svg11.dtd'><svg preserveAspectRatio="xMinYMin meet" version="1.1" viewBox="0 0 800 800" xmlns="http://www.w3.org/2000/svg">
<g fill="none" stroke="black" stroke-linecap="round" stroke-linejoin="round" stroke-width="1.8481">
<g transform="translate(87.52,135.4065) scale(1.6233) translate(0,-60)">
<path d="M167 268 C167 268 169.3665 263.4813 172 262 C175.9896 259.7559 177.6387 259.2365 183 259 C210.4512 257.7889 216.727 256.0078 240 259 C245.7803 259.7432 247.6027 262.8186 253 268 C259.5845 274.3211 265 283 265 283 " id="0"/>
<path d="M171 264 C171 264 156.0157 299.1415 149 333 C144.9744 352.4277 146.294 356.9169 148 375 C148.4708 379.991 151.6471 385.2605 154 386 C161.2152 388.2676 172.6028 390.1283 183 386 C200.8261 378.922 205.9707 374.266 222 359 C235.7293 345.9245 235.8428 342.9286 246 326 C251.8714 316.2143 249.7558 314.4885 255 304 C260.64 292.72 268 282 268 282 " id="1"/>

















</g>
</g>
</svg>