<?xml version="1.0" ?><!DOCTYPE svg  PUBLIC '-//W3C//DTD SVG 1.1//EN'  'http://www.w3.org/Graphics/SVG/1.1/DTD/svg11.dtd'><svg preserveAspectRatio="xMinYMin meet" version="1.1" viewBox="0 0 800 800" xmlns="http://www.w3.org/2000/svg">
<g fill="none" stroke="black" stroke-linecap="round" stroke-linejoin="round" stroke-width="1.8481">
<g transform="translate(87.52,135.4065) scale(1.6233) translate(0,-60)">
<path d="M167 268 C167 268 169.3665 263.4813 172 262 C175.9896 259.7559 177.6387 259.2365 183 259 C210.4512 257.7889 216.727 256.0078 240 259 C245.7803 259.7432 247.6027 262.8186 253 268 C259.5845 274.3211 265 283 265 283 " id="0"/>
<path d="M171 264 C171 264 156.0157 299.1415 149 333 C144.9744 352.4277 146.294 356.9169 148 375 C148.4708 379.991 151.6471 385.2605 154 386 C161.2152 388.2676 172.6028 390.1283 183 386 C200.8261 378.922 205.9707 374.266 222 359 C235.7293 345.9245 235.8428 342.9286 246 326 C251.8714 316.2143 249.7558 314.4885 255 304 C260.64 292.72 268 282 268 282 " id="1"/>
<path d="M168 272 C168 272 160.9498 264.5774 153 261 C132.199 251.6395 129.7177 254.1277 108 245 C95.629 239.8006 95.7243 238.9193 84 232 C65.2787 220.9514 64.6471 221.4706 47 209 C27.3822 195.1368 9 179 9 179 " id="2"/>
<path d="M265 285 C265 285 303.1521 288.1837 337 286 C347.0936 285.3488 348.4805 283.6377 358 279 C367.2995 274.4695 376 267 376 267 " id="3"/>
<path d="M9 179 C9 179 15.6548 175.6508 22 175 C34.3021 173.7382 48 175 48 175 " id="4"/>
<path d="M10 180 C10 180 18.6213 174.539 27 173 C41.8311 170.2759 43.033 171.0854 59 171 C136.3115 170.5866 214 172 214 172 " id="5"/>
<path d="M204 173 C204 173 233.5843 170.2715 261 174 C294.6727 178.5795 329 190 329 190 " id="6"/>
<path d="M204 172 L208 170 " id="7"/>
<path d="M216 170 C216 170 214.0036 159.8194 216 152 C219.5563 138.0711 223.9813 137.3523 228 123 C230.6774 113.4377 227.8478 111.5311 230 102 C231.1166 97.0553 233.5993 97.0024 235 92 C236.9118 85.1721 235.2151 84.1396 237 77 C239.1304 68.4785 241.0078 63.3867 243 60 C243.2283 59.6118 245.4413 59.3938 247 60 C253.5162 62.5341 254.8232 62.7998 261 67 C266.8607 70.9853 268.3248 71.4873 272 77 C277.5127 85.2691 278.5064 86.8788 281 97 C286.7209 120.2201 286.1187 121.5092 289 146 C291.0905 163.7695 291 182 291 182 " id="8"/>
<path d="M328 188 C328 188 347.2307 189.8131 357 194 C360.0502 195.3072 362.3571 198.9281 363 203 C364.8744 214.871 359.8024 225.9092 363 232 C365.4286 236.6258 378.8435 238.3123 384 243 C385.5273 244.3884 386.3245 249.7295 385 252 C378.7317 262.7457 363 279 363 279 " id="9"/>
<path d="M15 180 C15 180 13.1402 153.2184 16 128 C18.5317 105.6751 25.7292 83.2483 26 83 C26.0374 82.9657 34.5389 94.2587 40 106 C44.2174 115.0673 41.8063 116.7449 46 126 C56.0459 148.1703 69 170 69 170 " id="10"/>








</g>
</g>
</svg>